<svg width="166" height="63" viewBox="0 0 166 63" fill="none" xmlns="http://www.w3.org/2000/svg">
    <path d="M35.874 1.47266C36.4307 1.62891 36.5918 1.95117 36.3574 2.43945C32.6562 8.63086 29.3945 15.042 26.5723 21.6729C23.75 28.2939 21.167 35.0322 18.8232 41.8877C17.2998 46.3799 15.8789 50.9014 14.5605 55.4521C14.2383 56.5459 13.916 57.6543 13.5938 58.7773C13.3789 59.4609 13.1543 60.1348 12.9199 60.7988C12.8613 61.043 12.7881 61.2822 12.7002 61.5166C12.3975 62.376 11.7822 62.752 10.8545 62.6445C10.1318 62.5957 9.63867 62.249 9.375 61.6045C9.10156 60.8818 8.89648 60.1543 8.75977 59.4219C8.25195 56.7559 7.7832 54.0801 7.35352 51.3945C6.2793 44.5586 5.22461 37.7275 4.18945 30.9014C3.86719 28.6846 3.55469 26.4824 3.25195 24.2949C2.91016 21.9512 2.56836 19.6074 2.22656 17.2637C1.92383 15.3984 1.61133 13.543 1.28906 11.6973C1.14258 10.8086 0.991211 9.93457 0.834961 9.0752C0.795898 8.90918 0.766602 8.73828 0.74707 8.5625C0.74707 8.50391 0.732422 8.43066 0.703125 8.34277C0.703125 8.34277 0.693359 8.34277 0.673828 8.34277C0.654297 8.18652 0.644531 8.03516 0.644531 7.88867C0.605469 7.54687 0.571289 7.20508 0.541992 6.86328C0.571289 6.43359 0.800781 6.19434 1.23047 6.14551C2.14844 6.01855 2.70508 6.41895 2.90039 7.34668C2.90039 7.36621 2.90039 7.38574 2.90039 7.40527C3.33008 9.23145 3.70605 11.0576 4.02832 12.8838C4.58496 16.4287 5.13184 19.9639 5.66895 23.4893C5.68848 23.6162 5.71289 23.7432 5.74219 23.8701C6.25 27.3076 6.7627 30.7354 7.28027 34.1533C7.51465 35.833 7.76367 37.5078 8.02734 39.1777C8.11523 39.7832 8.19824 40.3838 8.27637 40.9795C8.55957 42.7471 8.82812 44.5098 9.08203 46.2676C9.51172 48.9531 9.94141 51.6484 10.3711 54.3535C10.5078 55.1934 10.6396 56.0332 10.7666 56.873C10.7861 56.9414 10.8057 57.0049 10.8252 57.0635C10.8252 57.1318 10.835 57.1953 10.8545 57.2539C10.8838 57.4297 10.9717 57.5078 11.1182 57.4883C11.1865 57.4688 11.2451 57.4443 11.2939 57.415C11.3525 57.3955 11.3916 57.3662 11.4111 57.3271C11.6064 56.7412 11.7871 56.1602 11.9531 55.584C15.0684 44.6465 18.8086 33.958 23.1738 23.5186C24.6777 19.9346 26.3184 16.4238 28.0957 12.9863C29.8828 9.54883 31.7871 6.16504 33.8086 2.83496C33.9746 2.53223 34.165 2.23926 34.3799 1.95605C34.7705 1.50684 35.2686 1.3457 35.874 1.47266Z" fill="#F14878" />
    <path d="M70.0453 37.7568C70.1723 37.8057 70.2357 37.9131 70.2357 38.0791C70.2357 38.2354 70.1967 38.4111 70.1186 38.6064C70.0404 38.792 69.9818 38.9531 69.9428 39.0898C68.5854 42.2637 66.9789 45.3057 65.1234 48.2158C63.268 51.126 61.0414 53.6895 58.4438 55.9062C57.0668 57.0488 55.6117 58.0791 54.0785 58.9971C52.5551 59.9248 50.9145 60.7012 49.1566 61.3262C48.0434 61.7266 47.0277 62.0049 46.1098 62.1611C45.2016 62.3271 44.142 62.4004 42.9311 62.3809C42.2475 62.4004 41.559 62.3809 40.8656 62.3223C40.182 62.2734 39.4887 62.1562 38.7855 61.9707C35.5336 61.043 33.1166 59.0654 31.5346 56.0381C30.9975 54.9834 30.5775 53.9141 30.2748 52.8301C29.9721 51.7461 29.7475 50.6572 29.601 49.5635C29.2299 46.6338 29.2152 43.7529 29.557 40.9209C30.016 36.9854 30.8119 33.2061 31.9447 29.583C33.0873 25.9502 34.5277 22.459 36.266 19.1094C38.1605 15.3887 40.4896 11.9805 43.2533 8.88477C45.1674 6.73633 47.35 4.90039 49.8012 3.37695C51.6273 2.21484 53.6586 1.45312 55.8949 1.0918C56.8813 0.916016 57.8773 0.959961 58.8832 1.22363C60.4555 1.60449 61.4564 2.57129 61.8861 4.12402C62.1889 5.38379 62.1889 6.94629 61.8861 8.81152C61.5834 10.667 61.1049 12.6055 60.4506 14.627C59.7963 16.6484 59.0688 18.5234 58.268 20.252C57.477 21.9805 56.7494 23.3574 56.0854 24.3828C55.89 24.6465 55.6508 24.8076 55.3676 24.8662C55.0941 24.915 54.7865 24.8955 54.4447 24.8076C54.2689 24.7686 54.1273 24.6758 54.0199 24.5293C53.9125 24.373 53.893 24.2314 53.9613 24.1045C54.0199 23.8896 54.1029 23.6846 54.2104 23.4893C54.2592 23.3818 54.3129 23.2646 54.3715 23.1377C54.6156 22.5518 54.8988 21.9072 55.2211 21.2041C55.9242 19.6318 56.6566 17.9131 57.4184 16.0479C58.1801 14.1729 58.7953 12.3076 59.2641 10.4521C59.7426 8.59668 59.9184 6.91699 59.7914 5.41309C59.557 2.87402 58.268 1.92676 55.9242 2.57129C54.8891 2.85449 53.9271 3.23047 53.0385 3.69922C52.1498 4.16797 51.2953 4.69531 50.475 5.28125C48.8441 6.46289 47.3549 7.77637 46.0072 9.22168C44.6693 10.6572 43.4438 12.1904 42.3305 13.8213C36.8227 21.8291 33.4389 30.9062 32.1791 41.0527C31.808 43.9922 31.8178 46.9902 32.2084 50.0469C32.4232 51.8047 32.9359 53.5332 33.7465 55.2324C34.5668 56.9023 35.5385 58.1768 36.6615 59.0557C37.7943 59.9443 38.9662 60.5254 40.1771 60.7988C41.3979 61.082 42.5453 61.1602 43.6195 61.0332C45.5043 60.8184 47.2768 60.3252 48.9369 59.5537C52.2377 58.0498 54.933 56.4482 57.0229 54.749C59.1225 53.0498 60.8803 51.2627 62.2963 49.3877C63.7221 47.5225 65.0551 45.5693 66.2953 43.5283C66.7934 42.7178 67.223 41.9365 67.5844 41.1846C68.0141 40.2959 68.5756 39.3047 69.2689 38.2109C69.5033 37.8691 69.7621 37.7178 70.0453 37.7568ZM75.198 43.9824C75.8914 43.6602 76.3748 43.1133 76.6482 42.3418C75.4861 41.6094 74.7146 40.5547 74.3338 39.1777C73.9627 39.8223 73.7381 40.5742 73.66 41.4336C73.5916 42.293 73.6795 43.0059 73.9236 43.5723C74.1775 44.1289 74.6023 44.2656 75.198 43.9824ZM77.1609 40.8184C77.3562 40.5449 77.4734 40.208 77.5125 39.8076C77.5613 39.4072 77.5467 39.0117 77.4686 38.6211C77.4002 38.2207 77.2928 37.9082 77.1463 37.6836C77.0096 37.459 76.8777 37.3906 76.7508 37.4785C76.4676 37.7129 76.3113 38.0498 76.282 38.4893C76.2527 38.9287 76.3211 39.3682 76.4871 39.8076C76.6629 40.2471 76.8875 40.584 77.1609 40.8184ZM84.3973 36.2773C84.6902 36.043 85.032 35.9258 85.4227 35.9258C85.6375 35.9258 85.8377 35.9844 86.0232 36.1016C86.2186 36.2188 86.3406 36.4629 86.3895 36.834C86.409 36.9609 86.4187 37.0879 86.4187 37.2148C86.4383 37.2832 86.448 37.3467 86.448 37.4053C86.4871 37.708 86.5066 37.9668 86.5066 38.1816C86.5066 38.5039 86.5262 38.7236 86.5652 38.8408C86.6141 38.958 86.7068 38.9531 86.8436 38.8262C86.99 38.6992 87.2244 38.3965 87.5467 37.918C88.1033 37.0586 88.7918 36.3311 89.6121 35.7354C90.3641 35.1982 91.1893 34.9736 92.0877 35.0615C92.8592 35.1396 93.3768 35.5449 93.6404 36.2773C93.7478 36.6484 93.8016 37.0244 93.8016 37.4053C93.8016 37.7764 93.7771 38.1523 93.7283 38.5332C93.7088 38.9238 93.6795 39.3242 93.6404 39.7344L93.5672 40.1152C93.4402 41.5117 93.4842 42.4492 93.699 42.9277C93.9139 43.3965 94.241 43.5527 94.6805 43.3965C95.1199 43.2305 95.7156 42.5518 96.4676 41.3604C97.2195 40.1689 97.6639 39.4121 97.8006 39.0898C97.9471 38.7676 98.0594 38.7822 98.1375 39.1338C98.2254 39.4854 97.9861 40.2812 97.4197 41.5215C96.8533 42.752 96.1502 43.7041 95.3103 44.3779C94.4705 45.042 93.6844 45.2861 92.952 45.1104C92.2293 44.9346 91.7117 44.4316 91.3992 43.6016C91.0867 42.7617 90.9939 41.707 91.1209 40.4375C91.1209 40.418 91.1307 40.3643 91.1502 40.2764C91.1697 40.0615 91.2039 39.7441 91.2527 39.3242C91.3113 38.9043 91.3504 38.4697 91.3699 38.0205C91.3992 37.5713 91.3846 37.2002 91.326 36.9072C91.2771 36.6143 91.1453 36.5117 90.9305 36.5996C90.4129 36.8828 89.9051 37.4395 89.407 38.2695C88.9187 39.0898 88.4744 39.9541 88.074 40.8623C87.6736 41.7607 87.3904 42.4883 87.2244 43.0449C87.1561 43.2207 87.0926 43.4062 87.034 43.6016C86.9461 43.8555 86.8484 44.1094 86.741 44.3633C86.4578 45.0957 85.9646 45.3789 85.2615 45.2129C84.8709 45.125 84.6414 44.8857 84.573 44.4951C84.5535 44.1924 84.5437 43.9043 84.5437 43.6309C84.5437 43.4551 84.534 43.2939 84.5145 43.1475C84.4754 41.4482 84.4314 39.7295 84.3826 37.9912C84.1873 38.4209 83.9187 38.8945 83.577 39.4121C82.2684 41.043 81.2527 42.0146 80.5301 42.3271C79.8172 42.6396 79.2801 42.8398 78.9187 42.9277C78.5672 43.0059 78.3377 43.1426 78.2303 43.3379C78.1228 43.5137 77.9959 43.6748 77.8494 43.8213L77.8055 43.8506C77.2098 44.4951 76.5018 44.9199 75.6814 45.125C74.8709 45.3301 74.0994 45.2666 73.367 44.9346C72.6346 44.6025 72.1072 43.9727 71.785 43.0449C71.5506 42.2051 71.5311 41.3701 71.7264 40.54C71.8924 39.8076 72.1609 39.1191 72.532 38.4746C72.9812 37.6152 73.5623 37.0098 74.2752 36.6582C74.9978 36.2969 75.8133 36.0967 76.7215 36.0576C78.0691 35.9893 78.9139 36.624 79.2557 37.9619C79.4705 38.7334 79.5242 39.5146 79.4168 40.3057C79.3973 40.4814 79.368 40.667 79.3289 40.8623C79.2801 40.9893 79.2459 41.1162 79.2264 41.2432C79.7244 41.2627 80.3592 40.9941 81.1307 40.4375C81.9021 39.8809 82.6346 39.002 83.3279 37.8008C83.7576 37.0195 84.1141 36.5117 84.3973 36.2773ZM112.973 41.3604C113.725 40.1689 114.169 39.4121 114.306 39.0898C114.452 38.7676 114.565 38.7822 114.643 39.1338C114.731 39.4854 114.491 40.2812 113.925 41.5215C113.359 42.752 112.655 43.7041 111.816 44.3779C110.976 45.042 110.19 45.2861 109.457 45.1104C108.735 44.9346 108.217 44.4316 107.904 43.6016C107.592 42.7617 107.499 41.707 107.626 40.4375C107.626 40.418 107.636 40.3643 107.655 40.2764C107.675 40.0615 107.709 39.7441 107.758 39.3242C107.817 38.9043 107.856 38.4697 107.875 38.0205C107.904 37.5713 107.89 37.2002 107.831 36.9072C107.782 36.6143 107.651 36.5117 107.436 36.5996C106.918 36.8828 106.41 37.4395 105.912 38.2695C105.424 39.0898 104.98 39.9541 104.579 40.8623C104.179 41.7607 103.896 42.4883 103.73 43.0449C103.661 43.2207 103.598 43.4062 103.539 43.6016C103.451 43.8555 103.354 44.1094 103.246 44.3633C102.963 45.0957 102.47 45.3789 101.767 45.2129C101.376 45.125 101.147 44.8857 101.078 44.4951C101.059 44.1924 101.049 43.9043 101.049 43.6309C101.049 43.4551 101.039 43.2939 101.02 43.1475C100.981 40.9795 100.927 38.7969 100.859 36.5996C100.878 36.3457 100.99 36.1699 101.196 36.0723C101.401 35.9746 101.645 35.9258 101.928 35.9258C102.143 35.9258 102.343 35.9844 102.529 36.1016C102.724 36.2188 102.846 36.4629 102.895 36.834C102.914 36.9609 102.924 37.0879 102.924 37.2148C102.944 37.2832 102.953 37.3467 102.953 37.4053C102.992 37.708 103.012 37.9668 103.012 38.1816C103.012 38.5039 103.031 38.7236 103.071 38.8408C103.119 38.958 103.212 38.9531 103.349 38.8262C103.495 38.6992 103.73 38.3965 104.052 37.918C104.609 37.0586 105.297 36.3311 106.117 35.7354C106.869 35.1982 107.695 34.9736 108.593 35.0615C109.364 35.1396 109.882 35.5449 110.146 36.2773C110.253 36.6484 110.307 37.0244 110.307 37.4053C110.307 37.7764 110.282 38.1523 110.234 38.5332C110.214 38.9238 110.185 39.3242 110.146 39.7344C110.116 39.8613 110.092 39.9883 110.072 40.1152C109.946 41.5117 109.989 42.4492 110.204 42.9277C110.419 43.3965 110.746 43.5527 111.186 43.3965C111.625 43.2305 112.221 42.5518 112.973 41.3604ZM131.47 39.9248C131.685 39.7979 131.895 39.7002 132.1 39.6318C132.305 39.5635 132.437 39.5684 132.496 39.6465C132.564 39.7246 132.481 39.9004 132.247 40.1738C131.514 41.0137 130.635 41.7852 129.61 42.4883C128.594 43.1816 127.549 43.7676 126.475 44.2461C125.635 44.627 124.747 44.9297 123.809 45.1543C122.881 45.3789 121.959 45.4277 121.041 45.3008C120.132 45.1738 119.302 44.7686 118.55 44.085C117.408 43.0303 116.934 41.7412 117.129 40.2178C117.296 39.0068 117.764 37.9814 118.536 37.1416C119.317 36.292 120.298 35.7158 121.48 35.4131C122.466 35.1982 123.453 35.1738 124.439 35.3398C124.888 35.4082 125.298 35.5596 125.67 35.7939C126.011 36.0576 126.197 36.3652 126.226 36.7168C126.265 37.0684 126.133 37.4053 125.831 37.7275C125.206 38.2842 124.483 38.6162 123.663 38.7236C122.745 38.8799 121.822 38.9775 120.894 39.0166C120.445 39.0166 120.128 39.1094 119.942 39.2949C119.766 39.4805 119.664 39.7979 119.634 40.2471C119.488 41.4678 119.879 42.4639 120.806 43.2354C121.382 43.6943 122.081 43.8896 122.901 43.8213C123.731 43.7529 124.61 43.5332 125.538 43.1621C126.465 42.7812 127.374 42.3418 128.262 41.8438C129.151 41.3359 129.952 40.8574 130.665 40.4082C130.967 40.2129 131.236 40.0518 131.47 39.9248ZM121.29 37.3174C121.29 37.3369 121.275 37.3467 121.246 37.3467C121.207 37.3857 121.153 37.4346 121.085 37.4932C121.026 37.542 120.967 37.5957 120.909 37.6543C120.86 37.7031 120.836 37.7373 120.836 37.7568C120.855 37.8252 121.031 37.8447 121.363 37.8154C121.695 37.7764 122.061 37.7178 122.462 37.6396C122.862 37.5518 123.194 37.4395 123.458 37.3027C123.731 37.1562 123.814 36.9854 123.707 36.79C123.658 36.7314 123.594 36.6826 123.516 36.6436C123.448 36.5947 123.37 36.5605 123.282 36.541C122.891 36.541 122.535 36.6191 122.213 36.7754C121.89 36.9219 121.583 37.1025 121.29 37.3174ZM148.723 39.8516C149.133 39.5977 149.401 39.5244 149.528 39.6318C149.665 39.7393 149.582 39.998 149.279 40.4082C148.4 41.4629 147.307 42.4492 145.998 43.3672C144.699 44.2754 143.405 44.9297 142.116 45.3301C141.286 45.6328 140.397 45.7842 139.45 45.7842C138.786 45.8037 138.117 45.7061 137.443 45.4912C135.988 45.0225 135.163 44.0264 134.968 42.5029C134.86 41.6631 134.914 40.8232 135.129 39.9834C135.383 39.124 135.793 38.3721 136.359 37.7275C136.936 37.083 137.644 36.5898 138.483 36.248C139.274 35.9453 140.095 35.8281 140.944 35.8965C141.794 35.9551 142.487 36.2236 143.024 36.7021C143.112 36.79 143.156 36.8975 143.156 37.0244C143.156 37.1514 143.132 37.2783 143.083 37.4053C142.956 37.7959 142.775 37.9814 142.541 37.9619C142.307 37.9326 142.028 37.835 141.706 37.6689C141.472 37.542 141.213 37.4248 140.93 37.3174C140.646 37.21 140.358 37.1855 140.065 37.2441C139.226 37.3711 138.527 37.8252 137.971 38.6064C137.512 39.251 137.199 39.9688 137.033 40.7598C136.877 41.5508 136.94 42.2588 137.224 42.8838C137.565 43.5283 138.122 43.8945 138.894 43.9824C139.675 44.0703 140.559 43.9824 141.545 43.7188C142.531 43.4453 143.518 43.0742 144.504 42.6055C145.49 42.127 146.364 41.6436 147.126 41.1553C147.897 40.6572 148.43 40.2227 148.723 39.8516ZM162.957 39.9541C163.495 39.4365 163.724 39.3096 163.646 39.5732C163.578 39.8271 163.285 40.2959 162.767 40.9795C162.249 41.6533 161.605 42.3857 160.833 43.1768C160.062 43.9678 159.246 44.6562 158.387 45.2422C157.528 45.8184 156.712 46.1309 155.941 46.1797C154.994 46.1797 154.232 45.9014 153.656 45.3447C153.089 44.7783 152.684 44.0361 152.44 43.1182C152.196 42.1904 152.093 41.1895 152.132 40.1152C152.181 38.9141 152.225 37.7129 152.264 36.5117C152.284 35.9062 152.303 35.3154 152.323 34.7393C152.371 33.7725 152.406 32.8057 152.425 31.8389C152.445 31.5361 152.396 31.2822 152.279 31.0771C152.162 30.8721 151.952 30.7598 151.649 30.7402C151.307 30.7207 150.877 30.7109 150.36 30.7109C149.911 30.7109 149.525 30.7109 149.203 30.7109C148.753 30.6621 148.455 30.5449 148.309 30.3594C148.153 30.1641 148.27 29.9688 148.661 29.7734C148.934 29.666 149.266 29.6074 149.657 29.5977C150.038 29.5879 150.413 29.5928 150.785 29.6123C151.019 29.6318 151.224 29.6416 151.4 29.6416C151.976 29.6416 152.328 29.5537 152.454 29.3779C152.581 29.1924 152.66 28.8311 152.689 28.2939C152.728 27.7275 152.757 27.1562 152.777 26.5801C152.796 26.2773 152.821 25.9746 152.85 25.6719C152.85 25.2227 152.967 24.8174 153.202 24.4561C153.455 24.1143 153.778 23.9824 154.168 24.0605C154.51 24.1484 154.701 24.3633 154.74 24.7051C154.769 25.2715 154.784 25.8428 154.784 26.4189C154.803 26.7412 154.803 27.0635 154.784 27.3857C154.784 27.7275 154.793 28.084 154.813 28.4551C154.793 28.9629 154.852 29.2852 154.989 29.4219C155.125 29.5488 155.462 29.6123 155.999 29.6123C156.878 29.6123 157.747 29.6123 158.607 29.6123C158.997 29.6123 160.16 29.5879 162.093 29.5391C164.027 29.4805 165.067 29.6367 165.213 30.0078C165.37 30.3691 164.149 30.5791 161.551 30.6377C159.979 30.7256 158.763 30.7695 157.904 30.7695C157.328 30.75 156.81 30.7402 156.351 30.7402C155.579 30.7402 155.101 30.877 154.915 31.1504C154.74 31.4141 154.662 31.9512 154.681 32.7617C154.662 33.4551 154.627 34.2949 154.579 35.2812C154.452 37.3027 154.388 39.3633 154.388 41.4629C154.437 42.9082 154.696 43.8457 155.164 44.2754C155.633 44.7051 156.244 44.7881 156.996 44.5244C157.747 44.251 158.558 43.7725 159.427 43.0889C160.306 42.3955 161.175 41.6533 162.035 40.8623C162.22 40.6182 162.445 40.3887 162.708 40.1738C162.796 40.0957 162.879 40.0225 162.957 39.9541Z" fill="#209CEE" />
</svg>
